<svg data-v-0dd9719b="" version="1.0" xmlns="http://www.w3.org/2000/svg" xmlns:xlink="http://www.w3.org/1999/xlink" width="100%" height="100%" viewBox="0 0 340.000000 250.000000" preserveAspectRatio="xMidYMid meet" color-interpolation-filters="sRGB" style="margin: auto;"> <rect data-v-0dd9719b="" x="0" y="0" width="100%" height="100%" fill="#ffffff" fill-opacity="1" class="background"></rect> <rect data-v-0dd9719b="" x="0" y="0" width="100%" height="100%" fill="url(#watermark)" fill-opacity="1" class="watermarklayer"></rect> <g data-v-0dd9719b="" fill="#333333" class="icon-text-wrapper icon-svg-group iconsvg" transform="translate(61.27680206298828,95.83584594726562)"><g class="iconsvg-imagesvg" transform="translate(0,0)"><g><rect fill="#333333" fill-opacity="0" stroke-width="2" x="0" y="0" width="60" height="58.328310617696815" class="image-rect"></rect> <svg x="0" y="0" width="60" height="58.328310617696815" filtersec="colorsb5456207356" class="image-svg-svg primary" style="overflow: visible;"><svg xmlns="http://www.w3.org/2000/svg" viewBox="-0.0008651400567032397 -0.01002003625035286 102.33426666259766 99.4827880859375"><title>资源 29</title><path d="M34.18 68.85c-6.46 4.2-12.43 9.07-18.7 13.54-2.63 1.88-5.21 3.82-7.8 5.75a4.62 4.62 0 0 1-5.34.61C.57 87.77 0 86.17 0 84.16Q.08 67.63 0 51.1a7.06 7.06 0 0 1 1.29-4.18q15.14-22 30.2-44.09A5.92 5.92 0 0 1 36.89 0c8.63.07 17.25 0 25.87 0 3.95 0 5.42 1.51 5.42 5.41v25.11-.15c-1 .71-1.72-.19-2.47-.52-9.71-4.18-19.3-8.45-28.92-12.7-2.62-1.15-2.63-1.15-2.63 1.61V69z" fill="#333333"></path><path d="M68.13 30.4v.15c5.15-3 9.68-6.94 14.53-10.38 3.92-2.79 7.77-5.67 11.62-8.56 1.71-1.29 3.47-1.95 5.53-.95s2.53 2.8 2.52 5q-.09 16.15 0 32.33a8 8 0 0 1-1.47 4.86Q85.87 74.65 71 96.52a6.05 6.05 0 0 1-5.59 2.94c-8.62-.1-17.25 0-25.88 0-3.9 0-5.33-1.5-5.33-5.45V68.89 69c1-.47 1.74.29 2.53.63q14.69 6.47 29.35 13c1.36.61 2.17 1 2.16-1.18-.11-17.05-.1-34.05-.11-51.05z" fill="#1684ac"></path></svg></svg> <!----></g></g> <g transform="translate(64,1.8833503723144531)"><g data-gra="path-name" fill-rule="" class="tp-name iconsvg-namesvg" transform="translate(0,0)"><g transform="scale(1.4400000000000004)"><g><path d="M24.53-27.03L4.95-27.03 5.92-31.93 36.77-31.93 35.8-27.03 14.28-7.96 33.35-7.96 32.84-3.06 1.53-3.06 2.5-7.96 24.53-27.03ZM40.61-3.06L40.61-3.06Q39.89-3.06 39.28-3.32 38.67-3.57 38.23-4.03 37.8-4.49 37.65-5.13 37.49-5.76 37.7-6.48L37.7-6.48 41.12-31.93 71.97-31.93 71.46-27.03 49.94-27.03 47.49-7.96 66.56-7.96 69.01-9.89 68.04-3.06 40.61-3.06ZM75.24-31.93L108.09-31.93 104.62-6.48Q104.62-5 103.42-4.03 102.22-3.06 100.74-3.06L100.74-3.06 73.31-3.06 76.72-29.99 75.24-31.93ZM98.3-27.03L86.51-27.03 83.61-7.96 95.34-7.96 98.3-27.03Z" transform="translate(-1.5299999713897705, 31.93000030517578)"></path></g> <!----> <!----> <!----> <!----> <!----> <!----> <!----></g></g> <g data-gra="path-slogan" fill-rule="" class="tp-slogan iconsvg-slogansvg" fill="#1684ac" transform="translate(54.64169692993164,47.57280349731445)"><!----> <!----> <g transform="scale(1, 1)"><g transform="scale(0.6999999999999993)"><path d="M0.25-2.40Q0.48-1.52 0.87-0.96Q1.26-0.40 1.84 0.01L1.84 0.01Q3.06 0.82 4.70 0.84L4.70 0.84Q6.46 0.82 7.61 0L7.61 0Q8.14-0.41 8.43-0.98Q8.72-1.56 8.74-2.21L8.74-2.21Q8.71-2.63 8.56-3.02L8.56-3.02Q8.08-4.03 6.56-4.69L6.56-4.69Q5.80-5.04 4.86-5.33L4.86-5.33Q4.00-5.58 3.56-5.83L3.56-5.83Q3.29-6.01 3.29-6.31L3.29-6.31Q3.29-6.44 3.35-6.57Q3.42-6.70 3.54-6.78L3.54-6.78Q3.92-7.00 4.34-6.98L4.34-6.98Q4.84-7.01 5.29-6.80L5.29-6.80Q5.68-6.60 5.93-6.26L5.93-6.26L8.63-6.26Q8.41-7.07 8.05-7.58Q7.69-8.09 7.15-8.45L7.15-8.45Q6.04-9.12 4.46-9.14L4.46-9.14Q2.83-9.12 1.62-8.27L1.62-8.27Q1.04-7.82 0.74-7.20L0.74-7.20Q0.53-6.65 0.53-6.14L0.53-6.14Q0.53-5.60 0.78-5.11L0.78-5.11Q0.98-4.75 1.32-4.45L1.32-4.45Q2.36-3.60 4.43-2.99L4.43-2.99Q5.23-2.72 5.60-2.51L5.60-2.51Q5.96-2.28 5.98-2.03L5.98-2.03Q5.95-1.70 5.61-1.50Q5.27-1.30 4.80-1.32L4.80-1.32Q4.19-1.30 3.72-1.60L3.72-1.60Q3.30-1.88 3.01-2.40L3.01-2.40L0.25-2.40ZM11.12 0.65L18.50 0.65L18.50-1.51L13.58-1.51L13.58-8.95L11.12-8.95L11.12 0.65ZM20.38-4.15Q20.38-3.11 20.68-2.18Q20.97-1.25 21.57-0.54L21.57-0.54Q21.90-0.18 22.28 0.10L22.28 0.10Q22.75 0.38 23.19 0.55L23.19 0.55Q24.03 0.82 24.94 0.84L24.94 0.84Q25.84 0.82 26.68 0.55L26.68 0.55Q27.13 0.38 27.60 0.10L27.60 0.10Q27.96-0.17 28.30-0.53L28.30-0.53Q28.90-1.26 29.20-2.19Q29.50-3.12 29.50-4.15L29.50-4.15Q29.49-5.15 29.22-6.10L29.22-6.10Q28.89-7.06 28.29-7.76L28.29-7.76Q27.61-8.50 26.67-8.86L26.67-8.86Q25.83-9.12 24.94-9.14L24.94-9.14Q24.06-9.13 23.20-8.86L23.20-8.86Q22.26-8.50 21.58-7.75L21.58-7.75Q20.97-7.03 20.66-6.10L20.66-6.10Q20.38-5.12 20.38-4.15L20.38-4.15ZM22.84-4.07Q22.84-5.44 23.43-6.25L23.43-6.25Q24.01-6.96 24.94-6.98L24.94-6.98Q25.87-6.96 26.44-6.25L26.44-6.25Q27.02-5.46 27.04-4.15L27.04-4.15Q27.02-3.55 26.90-2.98L26.90-2.98Q26.74-2.45 26.45-2.05Q26.16-1.66 25.71-1.45L25.71-1.45Q25.32-1.32 24.94-1.32L24.94-1.32Q24.51-1.32 24.10-1.50Q23.70-1.68 23.42-2.04L23.42-2.04Q22.84-2.82 22.84-4.07L22.84-4.07ZM40.43-6.24Q40.37-6.50 40.16-6.85Q39.95-7.19 39.62-7.63L39.62-7.63Q38.99-8.45 38.15-8.78Q37.32-9.12 36.17-9.14L36.17-9.14Q34.74-9.13 33.71-8.48Q32.68-7.84 32.14-6.71Q31.60-5.58 31.61-4.15L31.61-4.15Q31.61-2.77 32.15-1.63Q32.70-0.49 33.69 0.17Q34.68 0.83 35.95 0.83L35.95 0.83Q37.10 0.83 38.14 0.42Q39.18 0.01 39.83-0.83Q40.49-1.68 40.49-2.93L40.49-2.93L40.49-5.09L36.17-5.09L36.17-2.93L38.03-2.93L38.03-2.83Q38.02-2.40 37.73-2.05Q37.45-1.70 37.03-1.51Q36.60-1.31 36.17-1.31L36.17-1.31Q35.58-1.31 35.10-1.66Q34.62-2.02 34.34-2.65Q34.07-3.29 34.07-4.09L34.07-4.09Q34.07-4.99 34.34-5.69Q34.62-6.40 35.24-6.76L35.24-6.76Q35.72-6.98 36.20-6.98L36.20-6.98Q36.70-6.98 37.09-6.78L37.09-6.78Q37.28-6.70 37.42-6.53Q37.56-6.36 37.61-6.24L37.61-6.24L40.43-6.24ZM44.85 0.65L45.51-1.08L49.37-1.08L50.01 0.65L52.59 0.65L48.87-8.95L46.11-8.95L42.27 0.65L44.85 0.65ZM47.49-6.20L48.58-3.24L46.32-3.24L47.46-6.20L47.49-6.20ZM54.46 0.65L56.92 0.65L56.92-5.11L56.95-5.11L60.76 0.65L63.34 0.65L63.34-8.95L60.88-8.95L60.88-3.19L60.86-3.19L57.04-8.95L54.46-8.95L54.46 0.65Z" transform="translate(-0.252, 9.144)"></path></g></g></g></g></g><defs v-gra="od"></defs></svg>